<svg width="37" height="37" viewBox="0 0 37 37" fill="none" xmlns="http://www.w3.org/2000/svg">
<g clip-path="url(#clip0_5_3682)">
<path opacity="0.5" d="M10.7917 15.25C10.7917 12.9519 10.7917 11.8029 11.469 11.0889C12.1463 10.375 13.2364 10.375 15.4167 10.375H21.5834C23.7636 10.375 24.8537 10.375 25.5311 11.0889C26.2084 11.8029 26.2084 12.9519 26.2084 15.25V21.75C26.2084 24.0481 26.2084 25.1971 25.5311 25.9111C24.8537 26.625 23.7636 26.625 21.5834 26.625H15.4167C13.2364 26.625 12.1463 26.625 11.469 25.9111C10.7917 25.1971 10.7917 24.0481 10.7917 21.75V15.25Z" stroke="white" stroke-width="3.75"/>
<path d="M6.16669 18.5C6.16669 12.3717 6.16669 9.30762 7.97286 7.4038C9.77904 5.5 12.686 5.5 18.5 5.5C24.314 5.5 27.2211 5.5 29.0271 7.4038C30.8334 9.30762 30.8334 12.3717 30.8334 18.5C30.8334 24.6282 30.8334 27.6925 29.0271 29.5961C27.2211 31.5 24.314 31.5 18.5 31.5C12.686 31.5 9.77904 31.5 7.97286 29.5961C6.16669 27.6925 6.16669 24.6282 6.16669 18.5Z" stroke="white" stroke-width="3.75"/>
<path opacity="0.5" d="M6.16665 18.5H3.08331" stroke="white" stroke-width="3.75" stroke-linecap="round"/>
<path opacity="0.5" d="M33.9167 18.5H30.8333" stroke="white" stroke-width="3.75" stroke-linecap="round"/>
<path opacity="0.5" d="M6.16665 13.625H3.08331" stroke="white" stroke-width="3.75" stroke-linecap="round"/>
<path opacity="0.5" d="M33.9167 13.625H30.8333" stroke="white" stroke-width="3.75" stroke-linecap="round"/>
<path opacity="0.5" d="M6.16665 23.375H3.08331" stroke="white" stroke-width="3.75" stroke-linecap="round"/>
<path opacity="0.5" d="M33.9167 23.375H30.8333" stroke="white" stroke-width="3.75" stroke-linecap="round"/>
<path opacity="0.5" d="M18.5 31.5V34.75" stroke="white" stroke-width="3.75" stroke-linecap="round"/>
<path opacity="0.5" d="M18.5 2.25V5.5" stroke="white" stroke-width="3.75" stroke-linecap="round"/>
<path opacity="0.5" d="M13.875 31.5V34.75" stroke="white" stroke-width="3.75" stroke-linecap="round"/>
<path opacity="0.5" d="M13.875 2.25V5.5" stroke="white" stroke-width="3.75" stroke-linecap="round"/>
<path opacity="0.5" d="M23.125 31.5V34.75" stroke="white" stroke-width="3.75" stroke-linecap="round"/>
<path opacity="0.5" d="M23.125 2.25V5.5" stroke="white" stroke-width="3.75" stroke-linecap="round"/>
</g>
<defs>
<clipPath id="clip0_5_3682">
<rect width="37" height="37" fill="white"/>
</clipPath>
</defs>
</svg>
