<svg width="59" height="59" viewBox="0 0 59 59" fill="none" xmlns="http://www.w3.org/2000/svg">
<path fill-rule="evenodd" clip-rule="evenodd" d="M28.0619 0.750609C27.2294 1.02061 26.7494 1.50061 26.5169 2.28436C26.3856 2.72311 26.3631 3.74311 26.3631 9.06811C26.3631 16.1219 26.3556 16.0319 27.0756 16.7519C28.0394 17.7119 30.2894 17.7119 31.2531 16.7519C31.9731 16.0319 31.9656 16.1219 31.9656 9.06811C31.9656 2.24311 31.9544 2.12311 31.3994 1.46311C30.9344 0.911859 30.4356 0.728109 29.3144 0.698109C28.7631 0.683109 28.2006 0.705609 28.0619 0.750609ZM9.48815 8.16061C8.89565 8.43061 8.0219 9.28561 7.71815 9.89311C7.40315 10.5269 7.38815 11.2319 7.67315 11.8619C7.95065 12.4806 16.6656 21.2256 17.3519 21.5744C18.3231 22.0731 19.3206 21.8294 20.3256 20.8469C21.3156 19.8794 21.5781 18.8294 21.0756 17.8506C20.7269 17.1644 11.9819 8.44936 11.3631 8.17186C10.7931 7.91311 10.0431 7.90936 9.48815 8.16061ZM47.3631 8.22061C46.9019 8.43436 46.1144 9.17311 42.3569 12.9419C38.9031 16.4031 37.8494 17.5206 37.6806 17.8881C37.3956 18.5069 37.3994 19.2231 37.6844 19.8306C37.9469 20.3931 38.8094 21.2781 39.3906 21.5819C39.9794 21.8894 40.8531 21.8856 41.4644 21.5744C42.0906 21.2519 50.7531 12.5894 51.0756 11.9631C51.3869 11.3556 51.3906 10.4781 51.0869 9.89686C50.7794 9.30811 49.9844 8.52811 49.3844 8.22436C48.7131 7.88311 48.0944 7.88311 47.3631 8.22061ZM1.78565 27.0081C0.679397 27.3569 0.131897 28.2381 0.131897 29.6594C0.135647 31.1106 0.675647 31.9806 1.7819 32.3106C2.2244 32.4419 3.21065 32.4644 8.5694 32.4644C14.1531 32.4644 14.8994 32.4456 15.3569 32.2956C16.0319 32.0781 16.5794 31.5306 16.7969 30.8556C17.1194 29.8619 16.9581 28.4519 16.4444 27.7544C16.3319 27.6044 16.0094 27.3531 15.7281 27.1994L15.2144 26.9144L8.71565 26.8919C3.4844 26.8769 2.13065 26.8994 1.78565 27.0081ZM43.2081 26.9556C42.7469 27.0681 42.1094 27.4544 41.8844 27.7581C41.3706 28.4519 41.2094 29.8619 41.5319 30.8556C41.7494 31.5306 42.2969 32.0781 42.9719 32.2956C43.4294 32.4456 44.1756 32.4644 49.7594 32.4644C55.1181 32.4644 56.1044 32.4419 56.5469 32.3106C57.6531 31.9806 58.1931 31.1106 58.1969 29.6594C58.1969 28.2156 57.6456 27.3494 56.5019 27.0044C56.1156 26.8881 54.9044 26.8656 49.7744 26.8731C46.3319 26.8806 43.3769 26.9181 43.2081 26.9556ZM17.3631 38.2206C16.9019 38.4344 16.1144 39.1731 12.3569 42.9419C8.90315 46.4031 7.8494 47.5206 7.68065 47.8881C7.39565 48.5069 7.3994 49.2231 7.6844 49.8306C7.9469 50.3931 8.8094 51.2781 9.39065 51.5819C9.9794 51.8894 10.8531 51.8856 11.4644 51.5744C12.0906 51.2519 20.7531 42.5894 21.0756 41.9631C21.3869 41.3556 21.3906 40.4781 21.0869 39.8969C20.7794 39.3081 19.9844 38.5281 19.3844 38.2244C18.7131 37.8831 18.0944 37.8831 17.3631 38.2206ZM39.4881 38.1606C38.8956 38.4306 38.0219 39.2856 37.7181 39.8931C37.4031 40.5269 37.3881 41.2319 37.6731 41.8619C37.9506 42.4806 46.6656 51.2256 47.3519 51.5744C48.3231 52.0731 49.3206 51.8294 50.3256 50.8469C51.3156 49.8794 51.5781 48.8294 51.0756 47.8506C50.7269 47.1644 41.9819 38.4494 41.3631 38.1719C40.7931 37.9131 40.0431 37.9094 39.4881 38.1606ZM28.2081 41.9519C27.7394 42.0719 27.1056 42.4581 26.8844 42.7581C26.3669 43.4556 26.3631 43.5044 26.3631 50.2469C26.3631 55.6169 26.3856 56.6031 26.5169 57.0456C26.8469 58.1519 27.7206 58.6919 29.1644 58.6919C30.6081 58.6919 31.4819 58.1519 31.8119 57.0456C32.0444 56.2506 32.0406 44.1944 31.8044 43.5006C31.5794 42.8406 31.3206 42.5256 30.7394 42.2106C30.3269 41.9856 30.0869 41.9294 29.3781 41.9031C28.9019 41.8844 28.3769 41.9069 28.2081 41.9519Z" fill="black"/>
</svg>
