<svg width="51" height="60" viewBox="0 0 51 60" fill="none" xmlns="http://www.w3.org/2000/svg">
<path d="M48.3807 8.18635L26.1907 0.17926C25.8639 0.0606764 25.519 1.34681e-05 25.1714 0C24.8227 0 24.4767 0.0604248 24.1439 0.181073L2.0335 8.18816C0.838495 8.62161 5.85937e-08 9.75699 0 11.0283V29.9999C0 34.2355 1.3652 38.4717 3.97051 42.5904C5.96755 45.7472 8.74709 48.843 12.1887 51.7923C17.9431 56.7234 23.6529 59.5678 23.8928 59.6864C24.3114 59.8927 24.7718 60 25.2384 60C25.6906 60 26.1458 59.8985 26.5631 59.6955C26.803 59.5786 32.5101 56.7786 38.27 51.867C41.7151 48.9296 44.4529 45.8338 46.4514 42.6659C49.0557 38.5383 50.3538 34.277 50.3538 29.9999V11.0283C50.354 9.75498 49.5785 8.61819 48.3807 8.18635ZM4.83398 29.9858V13.2872C4.83398 12.6515 5.22352 12.0837 5.82112 11.867L24.6156 5.02956C24.7832 4.96893 24.9756 4.92422 25.177 4.92422V30.0001H45.6632C45.6632 30.0001 45.6658 30.0273 45.6658 30.0446C45.6618 35.5088 42.9097 40.9243 37.4869 46.1972C33.2522 50.3151 28.4409 53.254 25.9661 54.6403C25.7367 54.769 25.3786 54.8297 25.1772 54.8297V29.9922L4.83398 29.9858Z" fill="white"/>
</svg>
