<svg width="61" height="61" viewBox="0 0 61 61" fill="none" xmlns="http://www.w3.org/2000/svg">
<path d="M5.83545 19.0692C5.83545 17.1043 6.2476 15.2356 6.99017 13.545L13.3615 19.9163C15.3141 21.8689 18.4799 21.8689 20.4325 19.9163C22.3852 17.9637 22.3852 14.7979 20.4325 12.8452L14.0612 6.47394C15.7519 5.73136 17.6205 5.31921 19.5854 5.31921C27.1794 5.31921 33.3354 11.4753 33.3354 19.0692C33.3354 21.0341 32.9232 22.9028 32.1807 24.5934L54.4229 46.8357C56.3757 48.7885 56.3757 51.9542 54.4229 53.9067C52.4704 55.8595 49.3047 55.8595 47.3519 53.9067L25.1096 31.6645C23.419 32.407 21.5504 32.8192 19.5854 32.8192C11.9915 32.8192 5.83545 26.6632 5.83545 19.0692Z" stroke="white" stroke-width="5" stroke-linecap="round" stroke-linejoin="round"/>
</svg>
