<svg width="45" height="38" viewBox="0 0 45 38" fill="none" xmlns="http://www.w3.org/2000/svg">
<path d="M27.0056 37.4756V29.9513C29.3841 29.82 31.185 29.385 32.4066 28.6472C33.6291 27.9103 34.4878 26.7131 34.9837 25.0575C35.4787 23.4019 35.7272 21.0328 35.7272 17.9503H27.0056V0H44.8941V17.0653C44.8941 24.1144 43.3828 29.2791 40.3603 32.5575C37.3369 35.8359 32.8856 37.4756 27.0056 37.4756ZM0 37.4756V29.9513C2.37844 29.82 4.17844 29.4019 5.40094 28.6969C6.62344 27.9919 7.5075 26.7947 8.05219 25.1062C8.59688 23.4178 8.86969 21.0328 8.86969 17.9503H0V0H17.9869V17.0653C17.9869 24.1144 16.4841 29.2791 13.4784 32.5575C10.4719 35.8359 5.97937 37.4756 0 37.4756Z" fill="#25618B"/>
</svg>
