<svg width="39" height="26" viewBox="0 0 39 26" fill="none" xmlns="http://www.w3.org/2000/svg">
<path fill-rule="evenodd" clip-rule="evenodd" d="M31.8606 5.22252C31.8774 5.22196 31.8943 5.22168 31.9113 5.22168H33.8207C35.1944 5.22168 36.5117 5.72331 37.483 6.61627C38.4544 7.50919 39.0001 8.72025 39 9.98305C39 13.2205 39 18.001 39 21.2384C39.0001 22.5012 38.4544 23.7123 37.483 24.6052C36.5117 25.4981 35.1943 25.9998 33.8207 25.9997H17.8651C17.1138 25.9997 16.5047 25.4398 16.5047 24.7491C16.5047 24.0584 17.1138 23.4984 17.8651 23.4984C18.6084 23.4984 19.3118 23.1893 19.7785 22.6574L22.0683 20.0482C23.0516 18.9278 24.5334 18.2765 26.0993 18.2765H28.0924C28.7444 18.2765 29.3697 18.0384 29.8307 17.6145C30.2918 17.1907 30.5508 16.6159 30.5508 16.0165V7.72387H27.516C26.7652 7.72387 26.1556 7.16349 26.1556 6.47319C26.1556 5.78294 26.7652 5.22252 27.516 5.22252H31.8606ZM22.5365 23.4984L24.186 21.6188C24.6527 21.087 25.3561 20.7779 26.0993 20.7778C26.0994 20.7778 28.0924 20.7778 28.0924 20.7778C29.4661 20.7778 30.7835 20.2762 31.7548 19.3832C32.7261 18.4903 33.2717 17.2793 33.2717 16.0165V7.72303H33.8207C34.4727 7.72303 35.098 7.96112 35.5591 8.38499C36.0201 8.80882 36.2791 9.38365 36.2791 9.98305V21.2384C36.2791 21.8378 36.0201 22.4126 35.5591 22.8365C35.098 23.2603 34.4727 23.4984 33.8207 23.4984H22.5365ZM14.0582 3.82812C8.55185 3.82812 4.08142 7.93778 4.08142 12.9998C4.08142 18.0617 8.55185 22.1714 14.0582 22.1714C19.5645 22.1714 24.0349 18.0617 24.0349 12.9998C24.0349 7.93778 19.5645 3.82812 14.0582 3.82812ZM14.0582 6.32948C18.0627 6.32948 21.314 9.31833 21.314 12.9998C21.314 16.6812 18.0627 19.67 14.0582 19.67C10.0536 19.67 6.80235 16.6812 6.80235 12.9998C6.80235 9.31833 10.0536 6.32948 14.0582 6.32948Z" fill="white" fill-opacity="0.5"/>
<path fill-rule="evenodd" clip-rule="evenodd" d="M33.2717 4.58584C33.2717 3.36962 32.7462 2.20319 31.8106 1.34316C30.8751 0.48318 29.6063 0 28.2833 0C22.4052 0 10.8665 0 4.98836 0C2.23338 0 0 2.05315 0 4.58584C0 9.05589 0 16.9442 0 21.4142C0 23.9469 2.23334 26 4.98836 26H17.9564C19.4647 26 20.8919 25.3727 21.8389 24.2936L24.2433 21.5538C24.6738 21.0632 25.3225 20.7781 26.0081 20.7781H28.2834C31.0384 20.7781 33.2717 18.7249 33.2717 16.1923V4.58584ZM30.5508 4.58584V16.1923C30.5508 17.3435 29.5356 18.2767 28.2834 18.2767C28.2833 18.2767 26.0081 18.2767 26.0081 18.2767C24.4998 18.2767 23.0726 18.9041 22.1256 19.9831L19.7212 22.723C19.2908 23.2135 18.642 23.4986 17.9565 23.4986C17.9564 23.4986 4.98836 23.4986 4.98836 23.4986C3.73608 23.4986 2.72097 22.5654 2.72093 21.4143C2.72093 21.4141 2.72093 4.58584 2.72093 4.58584C2.72097 3.43457 3.73612 2.50135 4.98836 2.50135C10.8665 2.50135 22.4052 2.50135 28.2833 2.50135C28.8847 2.50135 29.4614 2.72099 29.8867 3.11188C30.3119 3.50281 30.5508 4.03302 30.5508 4.58584ZM13.239 14.2519C13.2734 14.3702 13.2912 14.493 13.2912 14.6176C13.2912 14.618 13.2912 14.6183 13.2912 14.6187C13.2912 14.995 13.1286 15.3559 12.8392 15.622C12.5497 15.888 12.1572 16.0375 11.7478 16.0375H11.7467C11.3373 16.0375 10.9448 15.888 10.6553 15.622C10.1244 15.1339 9.26227 15.1339 8.73132 15.622C8.20036 16.1101 8.20036 16.9026 8.73132 17.3907C9.53105 18.1259 10.6157 18.5388 11.7467 18.5388H11.7478C12.8788 18.5388 13.9634 18.1259 14.7632 17.3907C15.5629 16.6555 16.0122 15.6584 16.0122 14.6187C16.0122 14.6183 16.0122 14.618 16.0122 14.6176C16.0122 14.0684 15.8868 13.531 15.6506 13.038C15.743 12.9543 15.8474 12.881 15.9616 12.8204C15.9619 12.8202 15.9623 12.82 15.9626 12.8198C16.3171 12.6317 16.7384 12.5807 17.1338 12.6781C17.5292 12.7755 17.8663 13.0133 18.0709 13.3392C18.0711 13.3395 18.0713 13.3398 18.0715 13.3401C18.2762 13.666 18.3316 14.0533 18.2257 14.4167C18.0314 15.0835 18.4624 15.7699 19.1877 15.9485C19.913 16.1272 20.6596 15.7309 20.8539 15.0642C21.1466 14.0599 20.9934 12.9899 20.4279 12.0894C20.4277 12.0891 20.4275 12.0888 20.4273 12.0885C19.8618 11.1881 18.9305 10.5311 17.838 10.262C16.7456 9.99288 15.5816 10.1338 14.6021 10.6536C14.6018 10.6538 14.6015 10.654 14.6011 10.6542C14.0862 10.9275 13.6444 11.2938 13.2985 11.7259C13.1672 11.6941 13.0398 11.6462 12.92 11.5826C12.9197 11.5825 12.9194 11.5823 12.919 11.5821C12.5645 11.394 12.3059 11.084 12.1999 10.7205C12.094 10.3571 12.1495 9.96978 12.3541 9.64389C12.3543 9.64361 12.3545 9.64329 12.3547 9.64297C12.5593 9.31707 12.8965 9.0793 13.2919 8.98189C14.0171 8.80323 14.4482 8.1169 14.2538 7.45014C14.0595 6.78338 13.3129 6.38713 12.5876 6.56578C11.4952 6.83489 10.5638 7.49189 9.99831 8.39229C9.9981 8.39261 9.99792 8.39293 9.9977 8.39321C9.43223 9.29362 9.27899 10.3637 9.57171 11.3679C9.86444 12.3722 10.5791 13.2285 11.5586 13.7483C11.5589 13.7485 11.5593 13.7487 11.5596 13.7489C12.0801 14.0251 12.6528 14.1944 13.239 14.2519Z" fill="white"/>
</svg>
