<svg width="23" height="22" viewBox="0 0 23 22" fill="white" xmlns="http://www.w3.org/2000/svg">
<path fill-rule="evenodd" clip-rule="evenodd" d="M1.08335 0.916748C0.508062 0.916748 0.041687 1.32716 0.041687 1.83341C0.041687 2.33967 0.508062 2.75008 1.08335 2.75008H2.35337L6.06611 15.8189C4.97165 16.2467 4.20835 17.2116 4.20835 18.3334C4.20835 19.8522 5.60747 21.0834 7.33335 21.0834C9.05924 21.0834 10.4584 19.8522 10.4584 18.3334C10.4584 18.012 10.3956 17.7035 10.2805 17.4167H14.8028C14.6877 17.7035 14.625 18.012 14.625 18.3334C14.625 19.8522 16.0241 21.0834 17.75 21.0834C19.476 21.0834 20.875 19.8522 20.875 18.3334C20.875 16.8146 19.476 15.5834 17.75 15.5834H8.14667L7.62583 13.7501H17.75C19.9002 13.7501 21.1895 12.5547 21.9049 11.2347C22.6041 9.94472 22.8474 8.40309 22.9323 7.28179C23.0504 5.72021 21.5837 4.58341 19.9595 4.58341H5.02167L4.37451 2.30543C4.14265 1.48929 3.30935 0.916748 2.35337 0.916748H1.08335ZM17.75 11.9167H7.105L5.5425 6.41675H19.9595C20.5356 6.41675 20.8816 6.7896 20.8536 7.15996C20.7744 8.20626 20.5527 9.4709 20.0246 10.4454C19.5127 11.3898 18.8126 11.9167 17.75 11.9167ZM17.75 19.2444C17.1783 19.2444 16.7148 18.8366 16.7148 18.3334C16.7148 17.8303 17.1783 17.4224 17.75 17.4224C18.3218 17.4224 18.7852 17.8303 18.7852 18.3334C18.7852 18.8366 18.3218 19.2444 17.75 19.2444ZM6.29811 18.3334C6.29811 18.8366 6.7616 19.2444 7.33335 19.2444C7.9051 19.2444 8.36859 18.8366 8.36859 18.3334C8.36859 17.8303 7.9051 17.4224 7.33335 17.4224C6.7616 17.4224 6.29811 17.8303 6.29811 18.3334Z" fill="white"/>
</svg>
