<svg width="27" height="28" viewBox="0 0 27 28" fill="none" xmlns="http://www.w3.org/2000/svg">
<path d="M13.5 13.5651C14.6282 13.5651 15.7101 13.1003 16.5079 12.273C17.3056 11.4457 17.7538 10.3237 17.7538 9.15374C17.7538 7.98379 17.3056 6.86176 16.5079 6.03448C15.7101 5.20719 14.6282 4.74243 13.5 4.74243C12.3718 4.74243 11.2899 5.20719 10.4921 6.03448C9.6944 6.86176 9.24623 7.98379 9.24623 9.15374C9.24623 10.3237 9.6944 11.4457 10.4921 12.273C11.2899 13.1003 12.3718 13.5651 13.5 13.5651ZM13.5 15.5032C7.84434 15.5032 4.21875 18.7398 4.21875 20.3157V23.2583H22.7812V20.3157C22.7812 18.4099 19.3489 15.5032 13.5 15.5032Z" fill="white"/>
</svg>
